<svg width="200" height="200" viewBox="0 0 200 200" fill="none" xmlns="http://www.w3.org/2000/svg">
<circle cx="100" cy="100" r="100" fill="white"/>
<path d="M158.227 112.13L104.279 80.8676V78.5415C104.279 75.889 105.793 73.4216 108.23 72.1024C113.72 69.1306 116.984 63.4065 116.747 57.1641C116.426 48.7259 109.566 41.8647 101.13 41.5445C96.6658 41.3732 92.4383 42.9847 89.2259 46.0769C86.0114 49.1714 84.2412 53.3326 84.2412 57.7937C84.2412 59.8809 85.9333 61.573 88.0205 61.573C90.1077 61.573 91.7998 59.8809 91.7998 57.7937C91.7998 55.4057 92.7474 53.1787 94.468 51.5221C96.1866 49.8678 98.4478 49.0043 100.843 49.0975C105.354 49.2689 109.022 52.9381 109.194 57.4508C109.321 60.796 107.573 63.863 104.632 65.4551C99.7522 68.0966 96.7207 73.1109 96.7207 78.5415V80.8676L42.7728 112.13C38.5951 114.551 36 119.055 36 123.884C36 131.374 42.0927 137.468 49.5818 137.468H151.418C158.907 137.468 165 131.374 165 123.884C165 119.055 162.405 114.551 158.227 112.13V112.13ZM151.418 129.909H49.5818C46.2605 129.909 43.5586 127.206 43.5586 123.884C43.5586 121.742 44.7095 119.744 46.5626 118.67L100.5 87.4138L154.437 118.67C156.29 119.744 157.441 121.742 157.441 123.884C157.441 127.206 154.739 129.909 151.418 129.909V129.909Z" fill="#0FE7B3"/>
</svg>
